<svg width="595" height="465.99999999999994" xmlns="http://www.w3.org/2000/svg">
  <g>
   <title>background</title>
   <rect x="-1" y="-1" width="597" height="468" id="canvas_background" fill="none"/>
  </g>
 
  <g>
   <title>Layer 1</title>
   <path stroke="null" d="m-0.249763,-0.799996l296.397848,0l298.60155,467.088206l-297.499699,0.305886l-297.499699,0.305886l0,-467.699978zm407.183932,411.620844c5.308917,-2.752976 4.707907,-8.055003 -1.702861,-15.702158c-11.319012,-13.458992 -7.312282,-22.329691 9.215479,-20.392412c3.806394,0.407848 8.01346,0.50981 9.315647,0c5.308918,-1.733355 4.207067,-7.341268 -2.704542,-14.886461c-3.706226,-4.078482 -4.407403,-5.505951 -4.407403,-10.604054c0,-13.35703 13.222208,-39.765205 28.447782,-56.588945c4.106899,-4.588293 9.215479,-11.011902 11.319012,-14.478613c5.308918,-8.462851 11.719686,-31.302353 17.429276,-61.890971c3.005047,-15.906082 3.505888,-16.925702 11.519348,-20.902223c4.407403,-2.141203 11.519349,-4.282406 18.230622,-5.302027c17.429275,-2.752976 22.738192,-4.690255 28.547951,-10.604054c6.811441,-6.933421 9.916656,-13.458993 10.718002,-22.125768l0.60101,-7.137344l-5.308917,-2.44709c-2.90488,-1.325507 -9.415816,-3.364748 -14.424228,-4.48633c-14.824901,-3.364749 -17.228939,-4.996142 -20.233987,-14.070765c-4.407403,-13.051144 -7.612786,-16.925702 -19.232303,-22.73754c-6.510937,-3.262786 -10.718003,-6.219686 -11.519349,-8.055003c-0.701178,-1.631393 -2.103533,-10.502092 -3.105216,-19.78064c-1.803028,-16.721778 -3.706225,-22.635578 -7.212114,-22.635578c-0.901514,0 -4.00673,2.752976 -6.811441,6.219686c-2.804711,3.364748 -6.110263,6.219686 -7.312282,6.219686c-2.904879,0 -6.010095,-5.098103 -7.111945,-11.521713c-0.701178,-4.384369 -1.302188,-5.200065 -4.106899,-5.607913c-2.604374,-0.305887 -3.806393,0.611772 -6.310599,4.282406c-1.70286,2.549052 -3.105216,5.302027 -3.105216,6.015762s-1.903197,4.282407 -4.207066,7.851079c-2.30387,3.670634 -5.909927,11.011902 -8.01346,16.31393c-2.504207,6.423609 -5.108581,10.807978 -7.712956,12.949181c-5.308917,4.384369 -15.125405,11.215827 -20.334154,14.070765c-4.707908,2.651014 -17.930117,16.517854 -22.33752,23.553236c-1.502523,2.345128 -5.10858,9.074624 -8.013459,14.886461c-7.412451,14.784499 -14.223892,21.71792 -24.240717,24.776781c-9.916656,2.9569 -29.950306,5.200066 -38.164103,4.282407c-12.721367,-1.529431 -31.552998,-4.384369 -32.454512,-4.894179c-1.101851,-0.713734 -26.444418,-4.690255 -47.880423,-7.44323c-36.561411,-4.792217 -61.503305,1.835317 -82.638805,21.921843c-9.716321,9.278547 -16.327425,20.392412 -19.432641,32.729822c-1.001682,3.97652 -2.604374,17.027664 -3.505888,28.957225c-1.001683,13.255068 -2.504207,23.553237 -3.606057,26.408174c-1.101851,2.549052 -4.707908,7.749117 -8.113629,11.521713c-13.622881,15.192348 -21.73651,41.804446 -23.840043,78.306864c-0.500841,9.38051 -0.300505,11.113865 2.30387,16.110006c4.507571,8.564813 10.417498,11.113864 26.143913,11.113864c15.526078,0 20.935164,-1.835317 20.935164,-7.137344c0,-2.243165 -1.202019,-4.690255 -3.205384,-6.525572c-5.308917,-4.996141 -6.911609,-10.196206 -5.308917,-17.639437c1.70286,-8.258927 4.908244,-13.560954 10.617834,-17.435512c2.904879,-2.039241 5.809759,-4.078483 8.714638,-6.219686c3.005047,-2.243165 5.70959,-3.058862 9.816488,-3.058862c6.811441,0 11.819854,3.568672 20.634659,14.376651c6.611105,8.156965 16.127089,12.745258 26.444418,12.84722c5.409086,0 6.611105,-0.407849 8.313965,-2.9569c1.70286,-2.651014 1.70286,-3.46671 0.200336,-7.137344c-1.001682,-2.243166 -3.40572,-6.321648 -5.609422,-8.972662c-2.103533,-2.651013 -4.207066,-6.219686 -4.607739,-7.851079c-1.101851,-4.588292 0.200336,-12.745257 3.005047,-19.270829c2.103534,-4.894179 3.505889,-6.321648 8.313965,-8.462851c8.914974,-4.078483 15.826583,-2.651014 32.354344,6.627534c21.035333,11.725637 26.244082,14.274688 36.761748,18.047285c9.71632,3.46671 9.816488,3.46671 38.86528,3.160823c16.02692,-0.101962 32.354345,-0.407848 36.361075,-0.611772c6.410768,-0.305886 7.41245,0 9.415815,2.752976c1.202019,1.733355 3.305552,9.074623 4.707908,16.721778c6.510936,35.482797 7.612787,40.07109 11.920021,46.698624c5.108581,7.953041 8.914975,9.584434 22.137183,9.584434c6.811441,-0.203924 12.721368,-0.815696 14.524397,-1.733355z" fill="#df312e" id="svg_1"/>
  </g>
 </svg>